<?xml version="1.0" encoding="UTF-8" standalone="no"?>
<svg
   viewBox="0 0 512 512"
   version="1.1"
   id="svg4229"
   sodipodi:docname="arrows-down-to-people2.svg"
   inkscape:version="1.2.2 (b0a8486541, 2022-12-01)"
   xmlns:inkscape="http://www.inkscape.org/namespaces/inkscape"
   xmlns:sodipodi="http://sodipodi.sourceforge.net/DTD/sodipodi-0.dtd"
   xmlns="http://www.w3.org/2000/svg"
   xmlns:svg="http://www.w3.org/2000/svg">
  <defs
     id="defs4233" />
  <sodipodi:namedview
     id="namedview4231"
     pagecolor="#ffffff"
     bordercolor="#000000"
     borderopacity="0.25"
     inkscape:showpageshadow="2"
     inkscape:pageopacity="0.0"
     inkscape:pagecheckerboard="0"
     inkscape:deskcolor="#d1d1d1"
     showgrid="false"
     inkscape:zoom="0.50976563"
     inkscape:cx="202.05364"
     inkscape:cy="394.29885"
     inkscape:window-width="1296"
     inkscape:window-height="699"
     inkscape:window-x="0"
     inkscape:window-y="0"
     inkscape:window-maximized="1"
     inkscape:current-layer="svg4229" />
  <!--! Font Awesome Free 7.1.0 by @fontawesome - https://fontawesome.com License - https://fontawesome.com/license/free (Icons: CC BY 4.0, Fonts: SIL OFL 1.1, Code: MIT License) Copyright 2025 Fonticons, Inc. -->
  <path
     fill="currentColor"
     d="m 256,192 c 30.92797,0 55.99998,25.07205 55.99998,56 0,30.92795 -25.07201,56 -55.99998,56 -30.92797,0 -55.99998,-25.07205 -55.99998,-56 0,-30.92795 25.07201,-56 55.99998,-56 z m 0,160 c 53,0 96,43 96,96 v 32 c 0,17.7 -14.3,32 -32,32 H 192 c -17.7,0 -32,-14.3 -32,-32 v -32 c 0,-53 43,-96 96,-96 z M 32,288 c 0,-26.50969 21.490333,-47.99998 48,-47.99998 26.50967,0 48,21.49029 48,47.99998 0,26.50969 -21.49033,47.99998 -48,47.99998 -26.509667,0 -48,-21.49029 -48,-47.99998 z m 352,0 c 0,-26.50969 21.49033,-47.99998 48,-47.99998 26.50967,0 48,21.49029 48,47.99998 0,26.50969 -21.49033,47.99998 -48,47.99998 -26.50967,0 -48,-21.49029 -48,-47.99998 z M 80,368 c 15.3,0 29.6,4.3 41.8,11.8 -6.3,16.2 -9.8,33.8 -9.8,52.2 v 48 c 0,11.4 2.4,22.2 6.7,32 H 30.9 C 13.8,512 0,498.2 0,481.1 V 448 c 0,-44.2 35.8,-80 80,-80 z m 313.3,144 c 4.3,-9.8 6.7,-20.6 6.7,-32 v -48 c 0,-18.4 -3.5,-36 -9.8,-52.2 12.2,-7.5 26.5,-11.8 41.8,-11.8 44.2,0 80,35.8 80,80 v 33.1 c 0,17 -13.8,30.9 -30.9,30.9 z"
     id="path4227"
     sodipodi:nodetypes="sssssssssssssssssssssssscsscsssscsscssssc"
     style="fill:#eeeeee;fill-opacity:1"
     inkscape:export-filename="arrows-down-to-people2.svg"
     inkscape:export-xdpi="96"
     inkscape:export-ydpi="96" />
</svg>
