<?xml version="1.0" encoding="UTF-8" standalone="no"?>
<svg
   viewBox="0 0 576 512"
   version="1.1"
   id="svg1480"
   sodipodi:docname="ticket.svg"
   inkscape:version="1.2.2 (b0a8486541, 2022-12-01)"
   xmlns:inkscape="http://www.inkscape.org/namespaces/inkscape"
   xmlns:sodipodi="http://sodipodi.sourceforge.net/DTD/sodipodi-0.dtd"
   xmlns="http://www.w3.org/2000/svg"
   xmlns:svg="http://www.w3.org/2000/svg">
  <defs
     id="defs1484" />
  <sodipodi:namedview
     id="namedview1482"
     pagecolor="#ffffff"
     bordercolor="#000000"
     borderopacity="0.25"
     inkscape:showpageshadow="2"
     inkscape:pageopacity="0.0"
     inkscape:pagecheckerboard="0"
     inkscape:deskcolor="#d1d1d1"
     showgrid="false"
     inkscape:zoom="1.0195312"
     inkscape:cx="288.36782"
     inkscape:cy="256"
     inkscape:window-width="1296"
     inkscape:window-height="699"
     inkscape:window-x="0"
     inkscape:window-y="0"
     inkscape:window-maximized="1"
     inkscape:current-layer="svg1480" />
  <!--! Font Awesome Free 7.1.0 by @fontawesome - https://fontawesome.com License - https://fontawesome.com/license/free (Icons: CC BY 4.0, Fonts: SIL OFL 1.1, Code: MIT License) Copyright 2025 Fonticons, Inc. -->
  <path
     fill="currentColor"
     d="M64 64C28.7 64 0 92.7 0 128l0 64C0 200.8 7.4 207.7 15.7 210.6 34.5 217.1 48 235 48 256s-13.5 38.9-32.3 45.4C7.4 304.3 0 311.2 0 320l0 64c0 35.3 28.7 64 64 64l448 0c35.3 0 64-28.7 64-64l0-64c0-8.8-7.4-15.7-15.7-18.6-18.8-6.5-32.3-24.4-32.3-45.4s13.5-38.9 32.3-45.4c8.3-2.9 15.7-9.8 15.7-18.6l0-64c0-35.3-28.7-64-64-64L64 64zM416 336l0-160-256 0 0 160 256 0zM112 160c0-17.7 14.3-32 32-32l288 0c17.7 0 32 14.3 32 32l0 192c0 17.7-14.3 32-32 32l-288 0c-17.7 0-32-14.3-32-32l0-192z"
     id="path1478"
     style="fill:#ecf0ef;fill-opacity:1" />
</svg>
